<svg xmlns="http://www.w3.org/2000/svg" width="414.70037841796875" height="328.9943542480469" viewBox="-111.51726531982422 -59.083946228027344 414.70037841796875 328.9943542480469"><title>Neo4j Graph Visualization</title><desc>Created using Neo4j (http://www.neo4j.com/)</desc><g class="layer relationships"><g class="relationship" transform="translate(274.1831161622571 33.7142320219198) rotate(515.5410448287748)"><path class="outline" fill="#A5ABB6" stroke="none" d="M 21.40063509461097,12.933012701892217 L 21.90063509461097,12.06698729810778 A 64.1596943860321 64.1596943860321 0 0 0 42.53984161908519,19.634497374731055 L 42.36152654483146,20.61847081659515 A 65.1596943860321 65.1596943860321 0 0 1 21.40063509461097,12.933012701892217 Z M 61.765869674960435,21.19597910513211 L 61.646388031274235,20.203142695232657 A 64.1596943860321 64.1596943860321 0 0 0 82.69911082882744,13.876459715259912 L 81.35627579122232,11.193775600090923 L 89.18251293715593,11.190291980042767 L 84.48955754563428,17.453371868818564 L 83.14672250802916,14.770687753649575 A 65.1596943860321 65.1596943860321 0 0 1 61.765869674960435,21.19597910513211"/><text text-anchor="middle" pointer-events="none" font-size="8px" fill="#000000" x="52.05694474410532" y="24.134138807271754" transform="rotate(180 52.05694474410532 21.134138807271754)" font-family="sans-serif">trek</text></g><g class="relationship" transform="translate(172.6545523782715 79.89565572530108) rotate(480.42681627186323)"><path class="outline" fill="#A5ABB6" stroke="none" d="M 25 0.5 L 49.7795204049866 0.5 L 49.7795204049866 -0.5 L 25 -0.5 Z M 69.1154579049866 0.5 L 93.8949783099732 0.5 L 93.8949783099732 3.5 L 100.8949783099732 0 L 93.8949783099732 -3.5 L 93.8949783099732 -0.5 L 69.1154579049866 -0.5 Z"/><text text-anchor="middle" pointer-events="none" font-size="8px" fill="#000000" x="59.4474891549866" y="3" transform="rotate(180 59.4474891549866 0)" font-family="sans-serif">trek</text></g><g class="relationship" transform="translate(108.89662778575939 188.45196652906856) rotate(185.96550241777163)"><path class="outline" fill="#A5ABB6" stroke="none" d="M 25 0.5 L 47.21657951116603 0.5 L 47.21657951116603 -0.5 L 25 -0.5 Z M 66.55251701116603 0.5 L 88.76909652233206 0.5 L 88.76909652233206 3.5 L 95.76909652233206 0 L 88.76909652233206 -3.5 L 88.76909652233206 -0.5 L 66.55251701116603 -0.5 Z"/><text text-anchor="middle" pointer-events="none" font-size="8px" fill="#000000" x="56.88454826116603" y="3" transform="rotate(180 56.88454826116603 0)" font-family="sans-serif">trek</text></g><g class="relationship" transform="translate(274.1831161622571 33.7142320219198) rotate(515.5410448287748)"><path class="outline" fill="#A5ABB6" stroke="none" d="M 25 0.5 L 26.29840382344875 0.5 L 26.29840382344875 -0.5 L 25 -0.5 Z M 78.23981007344875 0.5 L 79.5382138968975 0.5 L 79.5382138968975 3.5 L 86.5382138968975 0 L 79.5382138968975 -3.5 L 79.5382138968975 -0.5 L 78.23981007344875 -0.5 Z"/><text text-anchor="middle" pointer-events="none" font-size="8px" fill="#000000" x="52.26910694844875" y="3" transform="rotate(180 52.26910694844875 0)" font-family="sans-serif">PublicTran…</text></g><g class="relationship" transform="translate(274.1831161622571 33.7142320219198) rotate(515.5410448287748)"><path class="outline" fill="#A5ABB6" stroke="none" d="M 21.40063509461097,-12.933012701892217 L 21.90063509461097,-12.06698729810778 A 64.1596943860321 64.1596943860321 0 0 1 41.23611475175625,-19.384279286728592 L 41.03747964824109,-20.36435280216073 A 65.1596943860321 65.1596943860321 0 0 0 21.40063509461097,-12.933012701892217 Z M 63.10268569401639,-21.021053175590296 L 62.96268805448871,-20.030901338281154 A 64.1596943860321 64.1596943860321 0 0 1 82.69911082882744,-13.876459715259912 L 81.35627579122232,-11.193775600090923 L 89.18251293715593,-11.190291980042767 L 84.48955754563428,-17.453371868818564 L 83.14672250802916,-14.770687753649575 A 65.1596943860321 65.1596943860321 0 0 0 63.10268569401639,-21.021053175590296"/><text text-anchor="middle" pointer-events="none" font-size="8px" fill="#000000" x="52.05694474410532" y="-18.134138807271754" transform="rotate(180 52.05694474410532 -21.134138807271754)" font-family="sans-serif">road</text></g><g class="relationship" transform="translate(172.6545523782715 79.89565572530108) rotate(229.1799447776591)"><path class="outline" fill="#A5ABB6" stroke="none" d="M 24.018736134675446,-6.953439040707552 L 24.277555179777966,-5.987513214418485 A 138.52224107972492 138.52224107972492 0 0 1 48.58332092867483,-10.225482932221468 L 48.49996659999216,-11.222002904871232 A 139.52224107972492 139.52224107972492 0 0 0 24.018736134675446,-6.953439040707552 Z M 67.88793367639765,-11.491678815678313 L 67.83232831717416,-10.493225990540537 A 138.52224107972492 138.52224107972492 0 0 1 92.24656370927927,-6.932924572381562 L 91.5510043366302,-4.014672157130265 L 99.17174590697381,-5.79632810540894 L 93.17397620614472,-10.823927792716624 L 92.47841683349564,-7.905675377465328 A 139.52224107972492 139.52224107972492 0 0 0 67.88793367639765,-11.491678815678313"/><text text-anchor="middle" pointer-events="none" font-size="8px" fill="#000000" x="58.19621380752705" y="-8.194097564619796" transform="rotate(180 58.19621380752705 -11.194097564619796)" font-family="sans-serif">trek</text></g><g class="relationship" transform="translate(91.9305883767048 -13.55780427610365) rotate(493.88231597355394)"><path class="outline" fill="#A5ABB6" stroke="none" d="M 24.018736134675446,-6.953439040707552 L 24.277555179777966,-5.987513214418485 A 111.32282407574043 111.32282407574043 0 0 1 41.75499175175698,-9.202169389740305 L 41.65317048960765,-10.196972099112529 A 112.32282407574043 112.32282407574043 0 0 0 24.018736134675446,-6.953439040707552 Z M 61.049035737157446,-10.498410208706474 L 60.97817735554648,-9.500923822957049 A 111.32282407574043 111.32282407574043 0 0 1 78.54706930588392,-6.830935229263725 L 77.86103621306407,-3.9104286643753627 L 85.47592347276009,-5.716942440165458 L 79.4617800963104,-10.724943982448208 L 78.77574700349055,-7.804437417559846 A 112.32282407574043 112.32282407574043 0 0 0 61.049035737157446,-10.498410208706474"/><text text-anchor="middle" pointer-events="none" font-size="8px" fill="#000000" x="51.35235336517016" y="-7.267244407376353" transform="rotate(180 51.35235336517016 -10.267244407376353)" font-family="sans-serif">trek</text></g><g class="relationship" transform="translate(15.810147336406626 65.59191742811747) rotate(463.76777665766747)"><path class="outline" fill="#A5ABB6" stroke="none" d="M 24.018736134675446,6.953439040707552 L 24.277555179777966,5.987513214418485 A 118.81536521659217 118.81536521659217 0 0 0 43.630591427563175,9.48801593353464 L 43.53465566117217,10.483403460444123 A 119.81536521659217 119.81536521659217 0 0 1 24.018736134675446,6.953439040707552 Z M 62.92818337112116,10.775391996153672 L 62.8622573623142,9.777567481841274 A 118.81536521659217 118.81536521659217 0 0 0 82.31190470841504,6.861277131595408 L 81.62303748715867,3.941437760760339 L 89.23967444390627,5.740560177136395 L 83.23039433675687,10.754396292708833 L 82.5415271155005,7.834556921873764 A 119.81536521659217 119.81536521659217 0 0 1 62.92818337112116,10.775391996153672"/><text text-anchor="middle" pointer-events="none" font-size="8px" fill="#000000" x="53.23302855117335" y="13.522527555124356" transform="rotate(180 53.23302855117335 10.522527555124356)" font-family="sans-serif">trek</text></g><g class="relationship" transform="translate(274.1831161622571 33.7142320219198) rotate(452.7879283493422)"><path class="outline" fill="#A5ABB6" stroke="none" d="M 24.018736134675446,-6.953439040707552 L 24.277555179777966,-5.987513214418485 A 108.9317282550427 108.9317282550427 0 0 1 41.15742558700883,-9.110152060617665 L 41.053564795829445,-10.104743904569531 A 109.9317282550427 109.9317282550427 0 0 0 24.018736134675446,-6.953439040707552 Z M 60.450199582282366,-10.409323134364428 L 60.37761782048513,-9.411960668730984 A 108.9317282550427 108.9317282550427 0 0 1 77.34720944374364,-6.820849233741243 L 76.66211845765227,-3.900121526340851 L 84.27642259202645,-5.709091550761437 L 78.26066409186546,-10.715152843608433 L 77.5755731057741,-7.79442513620804 A 109.9317282550427 109.9317282550427 0 0 0 60.450199582282366,-10.409323134364428"/><text text-anchor="middle" pointer-events="none" font-size="8px" fill="#000000" x="50.753001016368" y="-7.185782814760202" transform="rotate(180 50.753001016368 -10.185782814760202)" font-family="sans-serif">trek</text></g><g class="relationship" transform="translate(268.90011542109687 142.2014952873788) rotate(480.6867047993821)"><path class="outline" fill="#A5ABB6" stroke="none" d="M 21.40063509461097,-12.933012701892217 L 21.90063509461097,-12.06698729810778 A 67.50424986516653 67.50424986516653 0 0 1 31.20525421360315,-16.528314924832024 L 30.843091744389394,-17.46042991017074 A 68.50424986516653 68.50424986516653 0 0 0 21.40063509461097,-12.933012701892217 Z M 76.72514333643828,-18.78931147354018 L 76.41753638722389,-17.837797960869437 A 67.50424986516653 67.50424986516653 0 0 1 85.96476834316181,-13.922476374842878 L 84.61765278925907,-11.241939174124838 L 92.44387440382103,-11.225962949189494 L 87.76092241503213,-17.496525975800267 L 86.41380686112939,-14.815988775082227 A 68.50424986516653 68.50424986516653 0 0 0 76.72514333643828,-18.78931147354018"/><text text-anchor="middle" pointer-events="none" font-size="8px" fill="#000000" x="53.68397896619949" y="-18.582336996683267" transform="rotate(180 53.68397896619949 -21.582336996683267)" font-family="sans-serif">twowheeler</text></g><g class="relationship" transform="translate(210.32204266874868 240.91038277261293) rotate(207.34853641135965)"><path class="outline" fill="#A5ABB6" stroke="none" d="M 21.40063509461097,12.933012701892217 L 21.90063509461097,12.06698729810778 A 66.89294745888186 66.89294745888186 0 0 0 30.919000714591917,16.409055080629116 L 30.553818598428244,17.33999118049538 A 67.89294745888186 67.89294745888186 0 0 1 21.40063509461097,12.933012701892217 Z M 76.4223257204786,18.67503440566078 L 76.11190736798049,17.724434360198785 A 66.89294745888186 66.89294745888186 0 0 0 85.36755152065133,13.914247697738094 L 84.0212013968934,11.233325963659123 L 91.84742725412859,11.219584364649418 L 87.16268501899525,17.48881000984339 L 85.81633489523732,14.80788827576442 A 67.89294745888186 67.89294745888186 0 0 1 76.4223257204786,18.67503440566078"/><text text-anchor="middle" pointer-events="none" font-size="8px" fill="#000000" x="53.386408169754525" y="24.500415006024852" transform="rotate(180 53.386408169754525 21.500415006024852)" font-family="sans-serif">twowheeler</text></g><g class="relationship" transform="translate(15.810147336406626 65.59191742811747) rotate(463.76777665766747)"><path class="outline" fill="#A5ABB6" stroke="none" d="M 24.018736134675446,-6.953439040707552 L 24.277555179777966,-5.987513214418485 A 118.81536521659217 118.81536521659217 0 0 1 30.28780937835172,-7.431495677413409 L 30.079575156075926,-8.409574666387812 A 119.81536521659217 119.81536521659217 0 0 0 24.018736134675446,-6.953439040707552 Z M 76.43959808735266,-9.107570173632283 L 76.26090344747902,-8.123665592038904 A 118.81536521659217 118.81536521659217 0 0 1 82.31190470841504,-6.861277131595408 L 81.62303748715867,-3.941437760760339 L 89.23967444390627,-5.740560177136395 L 83.23039433675687,-10.754396292708833 L 82.5415271155005,-7.834556921873764 A 119.81536521659217 119.81536521659217 0 0 0 76.43959808735266,-9.107570173632283"/><text text-anchor="middle" pointer-events="none" font-size="8px" fill="#000000" x="53.23302855117331" y="-7.522527555124356" transform="rotate(180 53.23302855117331 -10.522527555124356)" font-family="sans-serif">twowheeler</text></g><g class="relationship" transform="translate(210.32204266874868 240.91038277261293) rotate(207.34853641135965)"><path class="outline" fill="#A5ABB6" stroke="none" d="M 25 0.5 L 42.58836147739334 0.5 L 42.58836147739334 -0.5 L 25 -0.5 Z M 64.60008022739333 0.5 L 82.18844170478668 0.5 L 82.18844170478668 3.5 L 89.18844170478668 0 L 82.18844170478668 -3.5 L 82.18844170478668 -0.5 L 64.60008022739333 -0.5 Z"/><text text-anchor="middle" pointer-events="none" font-size="8px" fill="#000000" x="53.59422085239334" y="3" transform="rotate(180 53.59422085239334 0)" font-family="sans-serif">road</text></g><g class="relationship" transform="translate(91.9305883767048 -13.55780427610365) rotate(493.88231597355394)"><path class="outline" fill="#A5ABB6" stroke="none" d="M 24.018736134675446,6.953439040707552 L 24.277555179777966,5.987513214418485 A 111.32282407574043 111.32282407574043 0 0 0 28.437585899655993,7.016793714028211 L 28.21613592737764,7.991965447507965 A 112.32282407574043 112.32282407574043 0 0 1 24.018736134675446,6.953439040707552 Z M 74.54810192035103,8.712027175326824 L 74.35706256666896,7.730444797049415 A 111.32282407574043 111.32282407574043 0 0 0 78.54706930588392,6.830935229263725 L 77.86103621306407,3.9104286643753627 L 85.47592347276009,5.716942440165458 L 79.4617800963104,10.724943982448208 L 78.77574700349055,7.804437417559846 A 112.32282407574043 112.32282407574043 0 0 1 74.54810192035103,8.712027175326824"/><text text-anchor="middle" pointer-events="none" font-size="8px" fill="#000000" x="51.35235336517022" y="13.267244407376353" transform="rotate(180 51.35235336517022 10.267244407376353)" font-family="sans-serif">twowheeler</text></g><g class="relationship" transform="translate(210.32204266874868 240.91038277261293) rotate(207.34853641135965)"><path class="outline" fill="#A5ABB6" stroke="none" d="M 21.40063509461097,-12.933012701892217 L 21.90063509461097,-12.06698729810778 A 66.89294745888186 66.89294745888186 0 0 1 43.86163517186481,-20.035542615810456 L 43.68993585095737,-21.02069201727194 A 67.89294745888186 67.89294745888186 0 0 0 21.40063509461097,-12.933012701892217 Z M 63.09436750024091,-21.585475059864322 L 62.98025758211015,-20.592006929230934 A 66.89294745888186 66.89294745888186 0 0 1 85.36755152065133,-13.914247697738094 L 84.0212013968934,-11.233325963659123 L 91.84742725412859,-11.219584364649418 L 87.16268501899525,-17.48881000984339 L 85.81633489523732,-14.80788827576442 A 67.89294745888186 67.89294745888186 0 0 0 63.09436750024091,-21.585475059864322"/><text text-anchor="middle" pointer-events="none" font-size="8px" fill="#000000" x="53.3864081697545" y="-18.500415006024852" transform="rotate(180 53.3864081697545 -21.500415006024852)" font-family="sans-serif">trek</text></g><g class="relationship" transform="translate(268.90011542109687 142.2014952873788) rotate(480.6867047993821)"><path class="outline" fill="#A5ABB6" stroke="none" d="M 25 0.5 L 42.884982829902356 0.5 L 42.884982829902356 -0.5 L 25 -0.5 Z M 64.89670157990236 0.5 L 82.78168440980471 0.5 L 82.78168440980471 3.5 L 89.78168440980471 0 L 82.78168440980471 -3.5 L 82.78168440980471 -0.5 L 64.89670157990236 -0.5 Z"/><text text-anchor="middle" pointer-events="none" font-size="8px" fill="#000000" x="53.890842204902356" y="3" transform="rotate(180 53.890842204902356 0)" font-family="sans-serif">road</text></g><g class="relationship" transform="translate(268.90011542109687 142.2014952873788) rotate(480.6867047993821)"><path class="outline" fill="#A5ABB6" stroke="none" d="M 21.40063509461097,12.933012701892217 L 21.90063509461097,12.06698729810778 A 67.50424986516653 67.50424986516653 0 0 0 44.157590049982346,20.12489642742868 L 43.98730195700787,21.11029074717642 A 68.50424986516653 68.50424986516653 0 0 1 21.40063509461097,12.933012701892217 Z M 63.39172222547981,21.67230084585111 L 63.278751684038696,20.678702508107676 A 67.50424986516653 67.50424986516653 0 0 0 85.96476834316181,13.922476374842878 L 84.61765278925907,11.241939174124838 L 92.44387440382103,11.225962949189494 L 87.76092241503213,17.496525975800267 L 86.41380686112939,14.815988775082227 A 68.50424986516653 68.50424986516653 0 0 1 63.39172222547981,21.67230084585111"/><text text-anchor="middle" pointer-events="none" font-size="8px" fill="#000000" x="53.68397896619951" y="24.582336996683267" transform="rotate(180 53.68397896619951 21.582336996683267)" font-family="sans-serif">trek</text></g><g class="relationship" transform="translate(274.1831161622571 33.7142320219198) rotate(452.7879283493422)"><path class="outline" fill="#A5ABB6" stroke="none" d="M 24.018736134675446,6.953439040707552 L 24.277555179777966,5.987513214418485 A 108.9317282550427 108.9317282550427 0 0 0 39.833728844659895,8.963739121781074 L 39.717716435549235,9.956986885902566 A 109.9317282550427 109.9317282550427 0 0 1 24.018736134675446,6.953439040707552 Z M 61.7900285529178,10.303581431735637 L 61.705258963348705,9.30718085130411 A 108.9317282550427 108.9317282550427 0 0 0 77.34720944374364,6.820849233741243 L 76.66211845765227,3.900121526340851 L 84.27642259202645,5.709091550761437 L 78.26066409186546,10.715152843608433 L 77.5755731057741,7.79442513620804 A 109.9317282550427 109.9317282550427 0 0 1 61.7900285529178,10.303581431735637"/><text text-anchor="middle" pointer-events="none" font-size="8px" fill="#000000" x="50.75300101636804" y="13.185782814760202" transform="rotate(180 50.75300101636804 10.185782814760202)" font-family="sans-serif">road</text></g><g class="relationship" transform="translate(172.6545523782715 79.89565572530108) rotate(229.1799447776591)"><path class="outline" fill="#A5ABB6" stroke="none" d="M 24.018736134675446,6.953439040707552 L 24.277555179777966,5.987513214418485 A 138.52224107972492 138.52224107972492 0 0 0 35.19096519535859,8.444131447855654 L 35.01093068283737,9.427791742012744 A 139.52224107972492 139.52224107972492 0 0 1 24.018736134675446,6.953439040707552 Z M 81.42165439909888,10.073339268479828 L 81.26904858591216,9.085052131165156 A 138.52224107972492 138.52224107972492 0 0 0 92.24656370927927,6.932924572381562 L 91.5510043366302,4.014672157130265 L 99.17174590697381,5.79632810540894 L 93.17397620614472,10.823927792716624 L 92.47841683349564,7.905675377465328 A 139.52224107972492 139.52224107972492 0 0 1 81.42165439909888,10.073339268479828"/><text text-anchor="middle" pointer-events="none" font-size="8px" fill="#000000" x="58.19621380752709" y="14.194097564619796" transform="rotate(180 58.19621380752709 11.194097564619796)" font-family="sans-serif">twowheeler</text></g><g class="relationship" transform="translate(172.6545523782715 79.89565572530108) rotate(392.91753555788506)"><path class="outline" fill="#A5ABB6" stroke="none" d="M 25 0.5 L 44.15834730328796 0.5 L 44.15834730328796 -0.5 L 25 -0.5 Z M 63.49428480328796 0.5 L 82.65263210657592 0.5 L 82.65263210657592 3.5 L 89.65263210657592 0 L 82.65263210657592 -3.5 L 82.65263210657592 -0.5 L 63.49428480328796 -0.5 Z"/><text text-anchor="middle" pointer-events="none" font-size="8px" fill="#000000" x="53.82631605328796" y="3" font-family="sans-serif">trek</text></g><g class="relationship" transform="translate(91.9305883767048 -13.55780427610365) rotate(188.07090201745655)"><path class="outline" fill="#A5ABB6" stroke="none" d="M 24.018736134675446,-6.953439040707552 L 24.277555179777966,-5.987513214418485 A 127.04639613091088 127.04639613091088 0 0 1 45.69602758834298,-9.798271789585755 L 45.605796343137555,-10.794192631012734 A 128.04639613091086 128.04639613091086 0 0 0 24.018736134675446,-6.953439040707552 Z M 64.9968961549627,-11.076440553455399 L 64.93568932461308,-10.078315449112992 A 127.04639613091088 127.04639613091088 0 0 1 86.45599985743418,-6.892554032179731 L 85.76421122022286,-3.973405443733896 L 93.38264467000968,-5.764905310094299 L 87.37838470704928,-10.784752150107511 L 86.68659606983796,-7.8656035616616755 A 128.04639613091086 128.04639613091086 0 0 0 64.9968961549627,-11.076440553455399"/><text text-anchor="middle" pointer-events="none" font-size="8px" fill="#000000" x="55.3032721141633" y="-7.803005104126797" transform="rotate(180 55.3032721141633 -10.803005104126797)" font-family="sans-serif">trek</text></g><g class="relationship" transform="translate(-24.612398347181934 -30.083946012864722) rotate(427.096199633799)"><path class="outline" fill="#A5ABB6" stroke="none" d="M 21.40063509461097,12.933012701892217 L 21.90063509461097,12.06698729810778 A 56.22177953434132 56.22177953434132 0 0 0 37.42090807461087,18.171337619348215 L 37.19696253444027,19.145939279021384 A 57.22177953434132 57.22177953434132 0 0 1 21.40063509461097,12.933012701892217 Z M 59.252463456209426,19.848172727618028 L 59.09097007607291,18.86129893215476 A 56.22177953434132 56.22177953434132 0 0 0 74.96813147569935,13.756623417652921 L 73.63644435263309,11.068388047329206 L 81.46262852696574,11.09739269221891 L 76.74371430645438,17.34093724475121 L 75.41202718338812,14.652701874427493 A 57.22177953434132 57.22177953434132 0 0 1 59.252463456209426,19.848172727618028"/><text text-anchor="middle" pointer-events="none" font-size="8px" fill="#000000" x="48.206453346947214" y="23.070548610982947" font-family="sans-serif">road</text></g><g class="relationship" transform="translate(-24.612398347181934 -30.083946012864722) rotate(427.096199633799)"><path class="outline" fill="#A5ABB6" stroke="none" d="M 25 0.5 L 38.76432622316501 0.5 L 38.76432622316501 -0.5 L 25 -0.5 Z M 58.10026372316501 0.5 L 71.86458994633001 0.5 L 71.86458994633001 3.5 L 78.86458994633001 0 L 71.86458994633001 -3.5 L 71.86458994633001 -0.5 L 58.10026372316501 -0.5 Z"/><text text-anchor="middle" pointer-events="none" font-size="8px" fill="#000000" x="48.43229497316501" y="3" font-family="sans-serif">trek</text></g><g class="relationship" transform="translate(-24.612398347181934 -30.083946012864722) rotate(427.096199633799)"><path class="outline" fill="#A5ABB6" stroke="none" d="M 21.40063509461097,-12.933012701892217 L 21.90063509461097,-12.06698729810778 A 56.22177953434132 56.22177953434132 0 0 1 25.992539035481556,-14.210330022061463 L 25.565320508689304,-15.114478422693487 A 57.22177953434132 57.22177953434132 0 0 0 21.40063509461097,-12.933012701892217 Z M 71.11700473780287,-16.564815752099747 L 70.74816825547441,-15.635321454482188 A 56.22177953434132 56.22177953434132 0 0 1 74.96813147569935,-13.756623417652921 L 73.63644435263309,-11.068388047329206 L 81.46262852696574,-11.09739269221891 L 76.74371430645438,-17.34093724475121 L 75.41202718338812,-14.652701874427493 A 57.22177953434132 57.22177953434132 0 0 0 71.11700473780287,-16.564815752099747"/><text text-anchor="middle" pointer-events="none" font-size="8px" fill="#000000" x="48.20645334694721" y="-17.070548610982947" font-family="sans-serif">twowheeler</text></g><g class="relationship" transform="translate(-24.612398347181934 -30.083946012864722) rotate(478.0335801970072)"><path class="outline" fill="#A5ABB6" stroke="none" d="M 25 0.5 L 48.434391476377584 0.5 L 48.434391476377584 -0.5 L 25 -0.5 Z M 67.77032897637758 0.5 L 91.20472045275517 0.5 L 91.20472045275517 3.5 L 98.20472045275517 0 L 91.20472045275517 -3.5 L 91.20472045275517 -0.5 L 67.77032897637758 -0.5 Z"/><text text-anchor="middle" pointer-events="none" font-size="8px" fill="#000000" x="58.102360226377584" y="3" transform="rotate(180 58.102360226377584 0)" font-family="sans-serif">trek</text></g><g class="relationship" transform="translate(-82.51725733017076 78.66544684981625) rotate(413.748803803329)"><path class="outline" fill="#A5ABB6" stroke="none" d="M 25 0.5 L 47.11919679265876 0.5 L 47.11919679265876 -0.5 L 25 -0.5 Z M 66.45513429265876 0.5 L 88.57433108531752 0.5 L 88.57433108531752 3.5 L 95.57433108531752 0 L 88.57433108531752 -3.5 L 88.57433108531752 -0.5 L 66.45513429265876 -0.5 Z"/><text text-anchor="middle" pointer-events="none" font-size="8px" fill="#000000" x="56.78716554265876" y="3" font-family="sans-serif">trek</text></g><g class="relationship" transform="translate(91.9305883767048 -13.55780427610365) rotate(188.07090201745655)"><path class="outline" fill="#A5ABB6" stroke="none" d="M 24.018736134675446,6.953439040707552 L 24.277555179777966,5.987513214418485 A 127.04639613091088 127.04639613091088 0 0 0 32.329980707847916,7.86657733038669 L 32.134543433289856,8.84729353383868 A 128.04639613091086 128.04639613091086 0 0 1 24.018736134675446,6.953439040707552 Z M 78.51910646293692,9.522445880821309 L 78.35229564281043,8.536456960858871 A 127.04639613091088 127.04639613091088 0 0 0 86.45599985743418,6.892554032179731 L 85.76421122022286,3.973405443733896 L 93.38264467000968,5.764905310094299 L 87.37838470704928,10.784752150107511 L 86.68659606983796,7.8656035616616755 A 128.04639613091086 128.04639613091086 0 0 1 78.51910646293692,9.522445880821309"/><text text-anchor="middle" pointer-events="none" font-size="8px" fill="#000000" x="55.30327211416334" y="13.803005104126797" transform="rotate(180 55.30327211416334 10.803005104126797)" font-family="sans-serif">twowheeler</text></g></g><g class="layer nodes"><g class="node" transform="translate(274.1831161622571,33.7142320219198)"><circle class="outline" cx="0" cy="0" r="25" fill="#F16667" stroke="#eb2728" stroke-width="2px"/><text text-anchor="middle" pointer-events="none" font-family="sans-serif" dy="1.5625" font-size="25" fill="#FFFFFF"/><text text-anchor="middle" pointer-events="none" y="5" font-size="10px" fill="#FFFFFF" font-family="sans-serif"> Darjeeling</text></g><g class="node" transform="translate(-11.218461967709787,175.90047704230233)"><circle class="outline" cx="0" cy="0" r="25" fill="#D9C8AE" stroke="#c0a378" stroke-width="2px"/><text text-anchor="middle" pointer-events="none" font-family="sans-serif" dy="1.5625" font-size="25" fill="#604A0E"/><text text-anchor="middle" pointer-events="none" y="5" font-size="10px" fill="#604A0E" font-family="sans-serif"> Sandak…</text></g><g class="node" transform="translate(172.6545523782715,79.89565572530108)"><circle class="outline" cx="0" cy="0" r="25" fill="#F16667" stroke="#eb2728" stroke-width="2px"/><text text-anchor="middle" pointer-events="none" font-family="sans-serif" dy="1.5625" font-size="25" fill="#FFFFFF"/><text text-anchor="middle" pointer-events="none" y="5" font-size="10px" fill="#FFFFFF" font-family="sans-serif"> Rimbik</text></g><g class="node" transform="translate(108.89662778575939,188.45196652906856)"><circle class="outline" cx="0" cy="0" r="25" fill="#8DCC93" stroke="#5db665" stroke-width="2px"/><text text-anchor="middle" pointer-events="none" font-family="sans-serif" dy="1.5625" font-size="25" fill="#604A0E"/><text text-anchor="middle" pointer-events="none" y="5" font-size="10px" fill="#604A0E" font-family="sans-serif"> BhikeBh…</text></g><g class="node" transform="translate(91.9305883767048,-13.55780427610365)"><circle class="outline" cx="0" cy="0" r="25" fill="#8DCC93" stroke="#5db665" stroke-width="2px"/><text text-anchor="middle" pointer-events="none" font-family="sans-serif" dy="1.5625" font-size="25" fill="#604A0E"/><text text-anchor="middle" pointer-events="none" y="5" font-size="10px" fill="#604A0E" font-family="sans-serif"> Sirikhola</text></g><g class="node" transform="translate(15.810147336406626,65.59191742811747)"><circle class="outline" cx="0" cy="0" r="25" fill="#8DCC93" stroke="#5db665" stroke-width="2px"/><text text-anchor="middle" pointer-events="none" font-family="sans-serif" dy="1.5625" font-size="25" fill="#604A0E"/><text text-anchor="middle" pointer-events="none" y="5" font-size="10px" fill="#604A0E" font-family="sans-serif"> Gurdum</text></g><g class="node" transform="translate(268.90011542109687,142.2014952873788)"><circle class="outline" cx="0" cy="0" r="25" fill="#8DCC93" stroke="#5db665" stroke-width="2px"/><text text-anchor="middle" pointer-events="none" font-family="sans-serif" dy="1.5625" font-size="25" fill="#604A0E"/><text text-anchor="middle" pointer-events="none" y="5" font-size="10px" fill="#604A0E" font-family="sans-serif"> Tumbling</text></g><g class="node" transform="translate(210.32204266874868,240.91038277261293)"><circle class="outline" cx="0" cy="0" r="25" fill="#8DCC93" stroke="#5db665" stroke-width="2px"/><text text-anchor="middle" pointer-events="none" font-family="sans-serif" dy="1.5625" font-size="25" fill="#604A0E"/><text text-anchor="middle" pointer-events="none" y="5" font-size="10px" fill="#604A0E" font-family="sans-serif"> Gairibus</text></g><g class="node" transform="translate(-24.612398347181934,-30.083946012864722)"><circle class="outline" cx="0" cy="0" r="25" fill="#8DCC93" stroke="#5db665" stroke-width="2px"/><text text-anchor="middle" pointer-events="none" font-family="sans-serif" dy="1.5625" font-size="25" fill="#604A0E"/><text text-anchor="middle" pointer-events="none" y="5" font-size="10px" fill="#604A0E" font-family="sans-serif"> Rammam</text></g><g class="node" transform="translate(-82.51725733017076,78.66544684981625)"><circle class="outline" cx="0" cy="0" r="25" fill="#D9C8AE" stroke="#c0a378" stroke-width="2px"/><text text-anchor="middle" pointer-events="none" font-family="sans-serif" dy="1.5625" font-size="25" fill="#604A0E"/><text text-anchor="middle" pointer-events="none" y="5" font-size="10px" fill="#604A0E" font-family="sans-serif"> Sabargr…</text></g></g></svg>