<svg xmlns="http://www.w3.org/2000/svg" width="318.797119140625" height="412.8393859863281" viewBox="-65.17111206054688 -112.90587615966797 318.797119140625 412.8393859863281"><title>Neo4j Graph Visualization</title><desc>Created using Neo4j (http://www.neo4j.com/)</desc><g class="layer relationships"><g class="relationship" transform="translate(173.75034596435336 270.93350837300534) rotate(243.50207947371098)"><path class="outline" fill="#A5ABB6" stroke="none" d="M 21.40063509461097,12.933012701892217 L 21.90063509461097,12.06698729810778 A 63.94046318467936 63.94046318467936 0 0 0 42.43393090095496,19.602216331441113 L 42.25506238458274,20.586089318086643 A 64.94046318467936 64.94046318467936 0 0 1 21.40063509461097,12.933012701892217 Z M 61.65938744126357,21.16464203145638 L 61.53945419206324,20.171860073654848 A 63.94046318467936 63.94046318467936 0 0 0 82.48521184022583,13.873356298943735 L 81.14266549032085,11.190527698686761 L 88.9689029658096,11.18788624920826 L 84.27527364009914,17.45046109928637 L 82.93272729019417,14.767632499029395 A 64.94046318467936 64.94046318467936 0 0 1 61.65938744126357,21.16464203145638"/><text text-anchor="middle" pointer-events="none" font-size="8px" fill="#000000" x="51.95038533483161" y="24.104761187871773" transform="rotate(180 51.95038533483161 21.104761187871773)" font-family="sans-serif">trek</text></g><g class="relationship" transform="translate(124.0806298509907 171.30241472782302) rotate(316.3108629277509)"><path class="outline" fill="#A5ABB6" stroke="none" d="M 24.018736134675446,-6.953439040707552 L 24.277555179777966,-5.987513214418485 A 138.250298467729 138.250298467729 0 0 1 35.12300647648239,-8.430783600068992 L 34.94263537266396,-9.414382230053462 A 139.250298467729 139.250298467729 0 0 0 24.018736134675446,-6.953439040707552 Z M 81.35282642311505,-10.060602914341274 L 81.19991141149146,-9.072363571256744 A 138.250298467729 138.250298467729 0 0 1 92.10918562225987,-6.932008413614052 L 91.4137118208328,-4.013735603966436 L 99.03440114500881,-5.795615011892178 L 93.03648402416262,-10.82303882647754 L 92.34101022273555,-7.904766016829924 A 139.250298467729 139.250298467729 0 0 0 81.35282642311505,-10.060602914341274"/><text text-anchor="middle" pointer-events="none" font-size="8px" fill="#000000" x="58.127578019063385" y="-8.184829340081194" font-family="sans-serif">twowheeler</text></g><g class="relationship" transform="translate(213.277198983726 86.09667051758493) rotate(275.5208486234946)"><path class="outline" fill="#A5ABB6" stroke="none" d="M 24.018736134675446,-6.953439040707552 L 24.277555179777966,-5.987513214418485 A 127.54813018141073 127.54813018141073 0 0 1 45.82208450067715,-9.817071762171636 L 45.73217839291253,-10.813022007809764 A 128.54813018141073 128.54813018141073 0 0 0 24.018736134675446,-6.953439040707552 Z M 65.12313510498309,-11.094696529844242 L 65.06219532580478,-10.096555085301603 A 127.54813018141073 127.54813018141073 0 0 1 86.7088679264677,-6.894395243965994 L 86.01690731254067,-3.9752874164314043 L 93.63544629303625,-5.7663384493919985 L 87.63148207837042,-10.786539014012114 L 86.93952146444339,-7.867431186477524 A 128.54813018141073 128.54813018141073 0 0 0 65.12313510498309,-11.094696529844242"/><text text-anchor="middle" pointer-events="none" font-size="8px" fill="#000000" x="55.42959970308858" y="-7.820102976759955" font-family="sans-serif">trek</text></g><g class="relationship" transform="translate(224.62601792427387 -31.317481903873226) rotate(514.7351159787147)"><path class="outline" fill="#A5ABB6" stroke="none" d="M 21.40063509461097,12.933012701892217 L 21.90063509461097,12.06698729810778 A 56.20561083396352 56.20561083396352 0 0 0 37.41316687924758,18.16882881166854 L 37.18916302188292,19.143417069285952 A 57.20561083396352 57.20561083396352 0 0 1 21.40063509461097,12.933012701892217 Z M 59.24463659447469,19.845749265371815 L 59.08309306844358,18.858883677159604 A 56.20561083396352 56.20561083396352 0 0 0 74.95241540327596,13.756362647397602 L 73.62075253964916,11.068115259667586 L 81.44693645191714,11.097190530223388 L 76.72796588811171,17.34069249770429 L 75.39630302448491,14.652445109974273 A 57.20561083396352 57.20561083396352 0 0 1 59.24463659447469,19.845749265371815"/><text text-anchor="middle" pointer-events="none" font-size="8px" fill="#000000" x="48.19862780338545" y="23.068382462141166" transform="rotate(180 48.19862780338545 20.068382462141166)" font-family="sans-serif">road</text></g><g class="relationship" transform="translate(130.71076819928686 13.005652665895823) rotate(190.1276389877168)"><path class="outline" fill="#A5ABB6" stroke="none" d="M 24.018736134675446,6.953439040707552 L 24.277555179777966,5.987513214418485 A 119.06990140988025 119.06990140988025 0 0 0 43.69438793633805,9.497665708032287 L 43.59863976411482,10.493071297486111 A 120.06990140988025 120.06990140988025 0 0 1 24.018736134675446,6.953439040707552 Z M 62.99209014735908,10.78474887182442 L 62.92632031918818,9.786914050973607 A 119.06990140988025 119.06990140988025 0 0 0 82.43993235815674,6.862275608829549 L 81.75097187348584,3.942458242869471 L 89.36766629284207,5.741337372257472 L 83.35854633771794,10.755365430109652 L 82.66958585304704,7.835548064149574 A 120.06990140988025 120.06990140988025 0 0 1 62.99209014735908,10.78474887182442"/><text text-anchor="middle" pointer-events="none" font-size="8px" fill="#000000" x="53.29698490753054" y="13.53120055366523" transform="rotate(180 53.29698490753054 10.53120055366523)" font-family="sans-serif">trek</text></g><g class="relationship" transform="translate(173.75034596435336 270.93350837300534) rotate(243.50207947371098)"><path class="outline" fill="#A5ABB6" stroke="none" d="M 25 0.5 L 41.15704460897555 0.5 L 41.15704460897555 -0.5 L 25 -0.5 Z M 63.16876335897555 0.5 L 79.3258079679511 0.5 L 79.3258079679511 3.5 L 86.3258079679511 0 L 79.3258079679511 -3.5 L 79.3258079679511 -0.5 L 63.16876335897555 -0.5 Z"/><text text-anchor="middle" pointer-events="none" font-size="8px" fill="#000000" x="52.16290398397555" y="3" transform="rotate(180 52.16290398397555 0)" font-family="sans-serif">road</text></g><g class="relationship" transform="translate(173.75034596435336 270.93350837300534) rotate(243.50207947371098)"><path class="outline" fill="#A5ABB6" stroke="none" d="M 21.40063509461097,-12.933012701892217 L 21.90063509461097,-12.06698729810778 A 63.94046318467936 63.94046318467936 0 0 1 22.72639986706297,-12.535602828123515 L 22.239314455593036,-13.408957167400061 A 64.94046318467936 64.94046318467936 0 0 0 21.40063509461097,-12.933012701892217 Z M 82.06718174537892,-15.192764378139053 L 81.63299458877914,-14.291941691344476 A 63.94046318467936 63.94046318467936 0 0 1 82.48521184022583,-13.873356298943735 L 81.14266549032085,-11.190527698686761 L 88.9689029658096,-11.18788624920826 L 84.27527364009914,-17.45046109928637 L 82.93272729019417,-14.767632499029395 A 64.94046318467936 64.94046318467936 0 0 0 82.06718174537892,-15.192764378139053"/><text text-anchor="middle" pointer-events="none" font-size="8px" fill="#000000" x="51.950385334831594" y="-18.104761187871773" transform="rotate(180 51.950385334831594 -21.104761187871773)" font-family="sans-serif">PublicTransport</text></g><g class="relationship" transform="translate(124.0806298509907 171.30241472782302) rotate(316.3108629277509)"><path class="outline" fill="#A5ABB6" stroke="none" d="M 24.018736134675446,6.953439040707552 L 24.277555179777966,5.987513214418485 A 138.250298467729 138.250298467729 0 0 0 48.51480697522211,10.215421873731003 L 48.43130221199871,11.211929251786472 A 139.250298467729 139.250298467729 0 0 1 24.018736134675446,6.953439040707552 Z M 67.81934017174201,11.481890458016437 L 67.76361336294664,10.483444403999755 A 138.250298467729 138.250298467729 0 0 0 92.10918562225987,6.932008413614052 L 91.4137118208328,4.013735603966436 L 99.03440114500881,5.795615011892178 L 93.03648402416262,10.82303882647754 L 92.34101022273555,7.904766016829924 A 139.250298467729 139.250298467729 0 0 1 67.81934017174201,11.481890458016437"/><text text-anchor="middle" pointer-events="none" font-size="8px" fill="#000000" x="58.1275780190634" y="14.184829340081194" font-family="sans-serif">trek</text></g><g class="relationship" transform="translate(213.277198983726 86.09667051758493) rotate(275.5208486234946)"><path class="outline" fill="#A5ABB6" stroke="none" d="M 24.018736134675446,6.953439040707552 L 24.277555179777966,5.987513214418485 A 127.54813018141073 127.54813018141073 0 0 0 32.454751013298726,7.892489229387081 L 32.26004263623885,8.873350406059245 A 128.54813018141073 128.54813018141073 0 0 1 24.018736134675446,6.953439040707552 Z M 78.64592638220009,9.547155305286225 L 78.47979027493724,8.561052474003631 A 127.54813018141073 127.54813018141073 0 0 0 86.7088679264677,6.894395243965994 L 86.01690731254067,3.9752874164314043 L 93.63544629303625,5.7663384493919985 L 87.63148207837042,10.786539014012114 L 86.93952146444339,7.867431186477524 A 128.54813018141073 128.54813018141073 0 0 1 78.64592638220009,9.547155305286225"/><text text-anchor="middle" pointer-events="none" font-size="8px" fill="#000000" x="55.42959970308858" y="13.820102976759955" font-family="sans-serif">twowheeler</text></g><g class="relationship" transform="translate(213.277198983726 86.09667051758493) rotate(221.5165041980472)"><path class="outline" fill="#A5ABB6" stroke="none" d="M 24.018736134675446,-6.953439040707552 L 24.277555179777966,-5.987513214418485 A 112.23417368584816 112.23417368584816 0 0 1 41.98288092633122,-9.237134286369795 L 41.88181531019866,-10.232014048570107 A 113.23417368584816 113.23417368584816 0 0 0 24.018736134675446,-6.953439040707552 Z M 61.27739011128553,-10.53227133878353 L 61.20716843693194,-9.53473992752322 A 112.23417368584816 112.23417368584816 0 0 1 79.00459875224092,-6.8347267656012205 L 78.31821150311933,-3.914303415426917 L 85.93331777750123,-5.7198937426799 L 79.9197817510697,-10.728624565833623 L 79.23339450194811,-7.808201215659321 A 113.23417368584816 113.23417368584816 0 0 0 61.27739011128553,-10.53227133878353"/><text text-anchor="middle" pointer-events="none" font-size="8px" fill="#000000" x="51.580900750253065" y="-7.298293863855349" transform="rotate(180 51.580900750253065 -10.29829386385535)" font-family="sans-serif">trek</text></g><g class="relationship" transform="translate(224.62601792427387 -31.317481903873226) rotate(514.7351159787147)"><path class="outline" fill="#A5ABB6" stroke="none" d="M 25 0.5 L 38.75653025816697 0.5 L 38.75653025816697 -0.5 L 25 -0.5 Z M 58.09246775816697 0.5 L 71.84899801633394 0.5 L 71.84899801633394 3.5 L 78.84899801633394 0 L 71.84899801633394 -3.5 L 71.84899801633394 -0.5 L 58.09246775816697 -0.5 Z"/><text text-anchor="middle" pointer-events="none" font-size="8px" fill="#000000" x="48.42449900816697" y="3" transform="rotate(180 48.42449900816697 0)" font-family="sans-serif">trek</text></g><g class="relationship" transform="translate(213.277198983726 86.09667051758493) rotate(221.5165041980472)"><path class="outline" fill="#A5ABB6" stroke="none" d="M 24.018736134675446,6.953439040707552 L 24.277555179777966,5.987513214418485 A 112.23417368584816 112.23417368584816 0 0 0 28.662138847088038,7.068305243887636 L 28.442386189016467,8.043860864685584 A 113.23417368584816 113.23417368584816 0 0 1 24.018736134675446,6.953439040707552 Z M 74.77811129493811,8.761170838896703 L 74.58866129273794,7.779280469931649 A 112.23417368584816 112.23417368584816 0 0 0 79.00459875224092,6.8347267656012205 L 78.31821150311933,3.914303415426917 L 85.93331777750123,5.7198937426799 L 79.9197817510697,10.728624565833623 L 79.23339450194811,7.808201215659321 A 113.23417368584816 113.23417368584816 0 0 1 74.77811129493811,8.761170838896703"/><text text-anchor="middle" pointer-events="none" font-size="8px" fill="#000000" x="51.58090075025308" y="13.298293863855363" transform="rotate(180 51.58090075025308 10.298293863855363)" font-family="sans-serif">twowheeler</text></g><g class="relationship" transform="translate(224.62601792427387 -31.317481903873226) rotate(514.7351159787147)"><path class="outline" fill="#A5ABB6" stroke="none" d="M 21.40063509461097,-12.933012701892217 L 21.90063509461097,-12.06698729810778 A 56.20561083396352 56.20561083396352 0 0 1 25.985198235515767,-14.206800609538497 L 25.557870039634594,-15.110897182369598 A 57.20561083396352 57.20561083396352 0 0 0 21.40063509461097,-12.933012701892217 Z M 71.10892654817175,-16.561420266645086 L 70.73998570952155,-15.631967385872692 A 56.20561083396352 56.20561083396352 0 0 1 74.95241540327596,-13.756362647397602 L 73.62075253964916,-11.068115259667586 L 81.44693645191714,-11.097190530223388 L 76.72796588811171,-17.34069249770429 L 75.39630302448491,-14.652445109974273 A 57.20561083396352 57.20561083396352 0 0 0 71.10892654817175,-16.561420266645086"/><text text-anchor="middle" pointer-events="none" font-size="8px" fill="#000000" x="48.198627803385435" y="-17.068382462141166" transform="rotate(180 48.198627803385435 -20.068382462141166)" font-family="sans-serif">twowheeler</text></g><g class="relationship" transform="translate(224.62601792427387 -31.317481903873226) rotate(205.11612475786774)"><path class="outline" fill="#A5ABB6" stroke="none" d="M 25 0.5 L 48.78027280299434 0.5 L 48.78027280299434 -0.5 L 25 -0.5 Z M 68.11621030299435 0.5 L 91.89648310598868 0.5 L 91.89648310598868 3.5 L 98.89648310598868 0 L 91.89648310598868 -3.5 L 91.89648310598868 -0.5 L 68.11621030299435 -0.5 Z"/><text text-anchor="middle" pointer-events="none" font-size="8px" fill="#000000" x="58.44824155299434" y="3" transform="rotate(180 58.44824155299434 0)" font-family="sans-serif">trek</text></g><g class="relationship" transform="translate(112.44402403023041 -83.9058719913187) rotate(500.6057311500425)"><path class="outline" fill="#A5ABB6" stroke="none" d="M 25 0.5 L 47.430813598531685 0.5 L 47.430813598531685 -0.5 L 25 -0.5 Z M 66.76675109853169 0.5 L 89.19756469706337 0.5 L 89.19756469706337 3.5 L 96.19756469706337 0 L 89.19756469706337 -3.5 L 89.19756469706337 -0.5 L 66.76675109853169 -0.5 Z"/><text text-anchor="middle" pointer-events="none" font-size="8px" fill="#000000" x="57.098782348531685" y="3" transform="rotate(180 57.098782348531685 0)" font-family="sans-serif">trek</text></g><g class="relationship" transform="translate(130.71076819928686 13.005652665895823) rotate(190.1276389877168)"><path class="outline" fill="#A5ABB6" stroke="none" d="M 24.018736134675446,-6.953439040707552 L 24.277555179777966,-5.987513214418485 A 119.06990140988025 119.06990140988025 0 0 1 30.350819999535272,-7.445251611011486 L 30.143006832054596,-8.423420148341137 A 120.06990140988025 120.06990140988025 0 0 0 24.018736134675446,-6.953439040707552 Z M 76.50387812605506,-9.120687845219237 L 76.3255756163375,-8.136712126500314 A 119.06990140988025 119.06990140988025 0 0 1 82.43993235815674,-6.862275608829549 L 81.75097187348584,-3.942458242869471 L 89.36766629284207,-5.741337372257472 L 83.35854633771794,-10.755365430109652 L 82.66958585304704,-7.835548064149574 A 120.06990140988025 120.06990140988025 0 0 0 76.50387812605506,-9.120687845219237"/><text text-anchor="middle" pointer-events="none" font-size="8px" fill="#000000" x="53.296984907530515" y="-7.531200553665229" transform="rotate(180 53.296984907530515 -10.53120055366523)" font-family="sans-serif">twowheeler</text></g><g class="relationship" transform="translate(124.0806298509907 171.30241472782302) rotate(480.8005624262776)"><path class="outline" fill="#A5ABB6" stroke="none" d="M 25 0.5 L 44.13384878728933 0.5 L 44.13384878728933 -0.5 L 25 -0.5 Z M 63.46978628728933 0.5 L 82.60363507457866 0.5 L 82.60363507457866 3.5 L 89.60363507457866 0 L 82.60363507457866 -3.5 L 82.60363507457866 -0.5 L 63.46978628728933 -0.5 Z"/><text text-anchor="middle" pointer-events="none" font-size="8px" fill="#000000" x="53.80181753728933" y="3" transform="rotate(180 53.80181753728933 0)" font-family="sans-serif">trek</text></g><g class="relationship" transform="translate(65.39768992059248 269.741765261197) rotate(207.56712296735623)"><path class="outline" fill="#A5ABB6" stroke="none" d="M 21.40063509461097,-12.933012701892217 L 21.90063509461097,-12.06698729810778 A 67.29313991258924 67.29313991258924 0 0 1 31.10635746145226,-16.487198884398822 L 30.743157770945903,-17.418910204935443 A 68.29313991258924 68.29313991258924 0 0 0 21.40063509461097,-12.933012701892217 Z M 76.6205759111839,-18.7499143188834 L 76.31200361699374,-17.798713425665667 A 67.29313991258924 67.29313991258924 0 0 1 85.75850626548942,-13.919643630610736 L 84.4116542124944,-11.238974022594277 L 92.23787735969366,-11.223767108291781 L 87.5543090028161,-17.49386977463268 L 86.20745694982108,-14.813200166616223 A 68.29313991258924 68.29313991258924 0 0 0 76.6205759111839,-18.7499143188834"/><text text-anchor="middle" pointer-events="none" font-size="8px" fill="#000000" x="53.58120519981468" y="-18.554045569518905" transform="rotate(180 53.58120519981468 -21.554045569518905)" font-family="sans-serif">twowheeler</text></g><g class="relationship" transform="translate(-36.17111510129629 216.71706509940827) rotate(295.249984934043)"><path class="outline" fill="#A5ABB6" stroke="none" d="M 21.40063509461097,12.933012701892217 L 21.90063509461097,12.06698729810778 A 66.4501619272655 66.4501619272655 0 0 0 30.71188605728642,16.322281935570288 L 30.34448544767346,17.25234472487864 A 67.4501619272655 67.4501619272655 0 0 1 21.40063509461097,12.933012701892217 Z M 76.20293428987708,18.59188062987802 L 75.89044848362562,17.64195820099691 A 66.4501619272655 66.4501619272655 0 0 0 84.93506043485947,13.908237452137383 L 83.58926938580629,11.227035025559266 L 91.41549793838392,11.214925408776354 L 86.72944850026369,17.483174020908205 L 85.38365745121051,14.80197159433009 A 67.4501619272655 67.4501619272655 0 0 1 76.20293428987708,18.59188062987802"/><text text-anchor="middle" pointer-events="none" font-size="8px" fill="#000000" x="53.170920107087795" y="24.441076977069642" font-family="sans-serif">twowheeler</text></g><g class="relationship" transform="translate(12.354827777869883 113.8272737654757) rotate(273.0456105630702)"><path class="outline" fill="#A5ABB6" stroke="none" d="M 25 0.5 L 47.324834750710934 0.5 L 47.324834750710934 -0.5 L 25 -0.5 Z M 66.66077225071093 0.5 L 88.98560700142187 0.5 L 88.98560700142187 3.5 L 95.98560700142187 0 L 88.98560700142187 -3.5 L 88.98560700142187 -0.5 L 66.66077225071093 -0.5 Z"/><text text-anchor="middle" pointer-events="none" font-size="8px" fill="#000000" x="56.992803500710934" y="3" font-family="sans-serif">trek</text></g><g class="relationship" transform="translate(173.75034596435336 270.93350837300534) rotate(180.63015619420509)"><path class="outline" fill="#A5ABB6" stroke="none" d="M 24.018736134675446,-6.953439040707552 L 24.277555179777966,-5.987513214418485 A 108.41918898187579 108.41918898187579 0 0 1 41.02940139716795,-9.090373237918996 L 40.925092327418504,-10.084918168009139 A 109.41918898187579 109.41918898187579 0 0 0 24.018736134675446,-6.953439040707552 Z M 60.32189342644564,-10.390178939348587 L 60.248931934426984,-9.392844180763277 A 108.41918898187579 108.41918898187579 0 0 1 77.09012167983533,-6.818660819836362 L 76.40523510847989,-3.8978851721056125 L 84.01941261976633,-5.707388094628766 L 78.00330377497595,-10.713028350144027 L 77.3184172036205,-7.792252702413277 A 109.41918898187579 109.41918898187579 0 0 0 60.32189342644564,-10.390178939348587"/><text text-anchor="middle" pointer-events="none" font-size="8px" fill="#000000" x="50.62458234695535" y="-7.16832173081481" transform="rotate(180 50.62458234695535 -10.16832173081481)" font-family="sans-serif">trek</text></g><g class="relationship" transform="translate(173.75034596435336 270.93350837300534) rotate(180.63015619420509)"><path class="outline" fill="#A5ABB6" stroke="none" d="M 24.018736134675446,6.953439040707552 L 24.277555179777966,5.987513214418485 A 108.41918898187579 108.41918898187579 0 0 0 39.70580367791332,8.943328798542339 L 39.589286458188916,9.936517470199291 A 109.41918898187579 109.41918898187579 0 0 1 24.018736134675446,6.953439040707552 Z M 61.66170757936379,10.28388631016314 L 61.576501305004996,9.287522977432616 A 108.41918898187579 108.41918898187579 0 0 0 77.09012167983533,6.818660819836362 L 76.40523510847989,3.8978851721056125 L 84.01941261976633,5.707388094628766 L 78.00330377497595,10.713028350144027 L 77.3184172036205,7.792252702413277 A 109.41918898187579 109.41918898187579 0 0 1 61.66170757936379,10.28388631016314"/><text text-anchor="middle" pointer-events="none" font-size="8px" fill="#000000" x="50.6245823469554" y="13.16832173081481" transform="rotate(180 50.6245823469554 10.16832173081481)" font-family="sans-serif">road</text></g><g class="relationship" transform="translate(65.39768992059248 269.741765261197) rotate(207.56712296735623)"><path class="outline" fill="#A5ABB6" stroke="none" d="M 25 0.5 L 42.78253600491541 0.5 L 42.78253600491541 -0.5 L 25 -0.5 Z M 64.79425475491541 0.5 L 82.57679075983081 0.5 L 82.57679075983081 3.5 L 89.57679075983081 0 L 82.57679075983081 -3.5 L 82.57679075983081 -0.5 L 64.79425475491541 -0.5 Z"/><text text-anchor="middle" pointer-events="none" font-size="8px" fill="#000000" x="53.78839537991541" y="3" transform="rotate(180 53.78839537991541 0)" font-family="sans-serif">road</text></g><g class="relationship" transform="translate(65.39768992059248 269.741765261197) rotate(207.56712296735623)"><path class="outline" fill="#A5ABB6" stroke="none" d="M 21.40063509461097,12.933012701892217 L 21.90063509461097,12.06698729810778 A 67.29313991258924 67.29313991258924 0 0 0 44.05537043893774,20.09405208042611 L 43.884597688150734,21.079362522666855 A 68.29313991258924 68.29313991258924 0 0 1 21.40063509461097,12.933012701892217 Z M 63.289023058024796,21.64232728927925 L 63.17566148148829,20.648773489545604 A 67.29313991258924 67.29313991258924 0 0 0 85.75850626548942,13.919643630610736 L 84.4116542124944,11.238974022594277 L 92.23787735969366,11.223767108291781 L 87.5543090028161,17.49386977463268 L 86.20745694982108,14.813200166616223 A 68.29313991258924 68.29313991258924 0 0 1 63.289023058024796,21.64232728927925"/><text text-anchor="middle" pointer-events="none" font-size="8px" fill="#000000" x="53.581205199814704" y="24.554045569518905" transform="rotate(180 53.581205199814704 21.554045569518905)" font-family="sans-serif">trek</text></g><g class="relationship" transform="translate(-36.17111510129629 216.71706509940827) rotate(295.249984934043)"><path class="outline" fill="#A5ABB6" stroke="none" d="M 25 0.5 L 42.37356637160077 0.5 L 42.37356637160077 -0.5 L 25 -0.5 Z M 64.38528512160077 0.5 L 81.75885149320155 0.5 L 81.75885149320155 3.5 L 88.75885149320155 0 L 81.75885149320155 -3.5 L 81.75885149320155 -0.5 L 64.38528512160077 -0.5 Z"/><text text-anchor="middle" pointer-events="none" font-size="8px" fill="#000000" x="53.37942574660077" y="3" font-family="sans-serif">road</text></g><g class="relationship" transform="translate(124.0806298509907 171.30241472782302) rotate(207.22266380115263)"><path class="outline" fill="#A5ABB6" stroke="none" d="M 25 0.5 L 49.65329890181491 0.5 L 49.65329890181491 -0.5 L 25 -0.5 Z M 68.9892364018149 0.5 L 93.64253530362981 0.5 L 93.64253530362981 3.5 L 100.64253530362981 0 L 93.64253530362981 -3.5 L 93.64253530362981 -0.5 L 68.9892364018149 -0.5 Z"/><text text-anchor="middle" pointer-events="none" font-size="8px" fill="#000000" x="59.32126765181491" y="3" transform="rotate(180 59.32126765181491 0)" font-family="sans-serif">trek</text></g><g class="relationship" transform="translate(-36.17111510129629 216.71706509940827) rotate(295.249984934043)"><path class="outline" fill="#A5ABB6" stroke="none" d="M 21.40063509461097,-12.933012701892217 L 21.90063509461097,-12.06698729810778 A 66.4501619272655 66.4501619272655 0 0 1 43.647339388469604,-19.970745366484266 L 43.47460276395486,-20.95571341599208 A 67.4501619272655 67.4501619272655 0 0 0 21.40063509461097,-12.933012701892217 Z M 62.87903602165562,-21.522521402766657 L 62.764087150639234,-20.529149993347175 A 66.4501619272655 66.4501619272655 0 0 1 84.93506043485947,-13.908237452137383 L 83.58926938580629,-11.227035025559266 L 91.41549793838392,-11.214925408776354 L 86.72944850026369,-17.483174020908205 L 85.38365745121051,-14.80197159433009 A 67.4501619272655 67.4501619272655 0 0 0 62.87903602165562,-21.522521402766657"/><text text-anchor="middle" pointer-events="none" font-size="8px" fill="#000000" x="53.170920107087795" y="-18.441076977069642" font-family="sans-serif">trek</text></g></g><g class="layer nodes"><g class="node" transform="translate(173.75034596435336,270.93350837300534)"><circle class="outline" cx="0" cy="0" r="25" fill="#F16667" stroke="#eb2728" stroke-width="2px"/><text text-anchor="middle" pointer-events="none" font-family="sans-serif" dy="1.5625" font-size="25" fill="#FFFFFF"/><text text-anchor="middle" pointer-events="none" y="5" font-size="10px" fill="#FFFFFF" font-family="sans-serif"> Darjeeling</text></g><g class="node" transform="translate(18.782902341227675,-6.987447849526233)"><circle class="outline" cx="0" cy="0" r="25" fill="#D9C8AE" stroke="#c0a378" stroke-width="2px"/><text text-anchor="middle" pointer-events="none" font-family="sans-serif" dy="1.5625" font-size="25" fill="#604A0E"/><text text-anchor="middle" pointer-events="none" y="5" font-size="10px" fill="#604A0E" font-family="sans-serif"> Sandak…</text></g><g class="node" transform="translate(124.0806298509907,171.30241472782302)"><circle class="outline" cx="0" cy="0" r="25" fill="#F16667" stroke="#eb2728" stroke-width="2px"/><text text-anchor="middle" pointer-events="none" font-family="sans-serif" dy="1.5625" font-size="25" fill="#FFFFFF"/><text text-anchor="middle" pointer-events="none" y="5" font-size="10px" fill="#FFFFFF" font-family="sans-serif"> Rimbik</text></g><g class="node" transform="translate(213.277198983726,86.09667051758493)"><circle class="outline" cx="0" cy="0" r="25" fill="#8DCC93" stroke="#5db665" stroke-width="2px"/><text text-anchor="middle" pointer-events="none" font-family="sans-serif" dy="1.5625" font-size="25" fill="#604A0E"/><text text-anchor="middle" pointer-events="none" y="5" font-size="10px" fill="#604A0E" font-family="sans-serif"> Sirikhola</text></g><g class="node" transform="translate(224.62601792427387,-31.317481903873226)"><circle class="outline" cx="0" cy="0" r="25" fill="#8DCC93" stroke="#5db665" stroke-width="2px"/><text text-anchor="middle" pointer-events="none" font-family="sans-serif" dy="1.5625" font-size="25" fill="#604A0E"/><text text-anchor="middle" pointer-events="none" y="5" font-size="10px" fill="#604A0E" font-family="sans-serif"> Rammam</text></g><g class="node" transform="translate(130.71076819928686,13.005652665895823)"><circle class="outline" cx="0" cy="0" r="25" fill="#8DCC93" stroke="#5db665" stroke-width="2px"/><text text-anchor="middle" pointer-events="none" font-family="sans-serif" dy="1.5625" font-size="25" fill="#604A0E"/><text text-anchor="middle" pointer-events="none" y="5" font-size="10px" fill="#604A0E" font-family="sans-serif"> Gurdum</text></g><g class="node" transform="translate(112.44402403023041,-83.9058719913187)"><circle class="outline" cx="0" cy="0" r="25" fill="#D9C8AE" stroke="#c0a378" stroke-width="2px"/><text text-anchor="middle" pointer-events="none" font-family="sans-serif" dy="1.5625" font-size="25" fill="#604A0E"/><text text-anchor="middle" pointer-events="none" y="5" font-size="10px" fill="#604A0E" font-family="sans-serif"> Sabargr…</text></g><g class="node" transform="translate(65.39768992059248,269.741765261197)"><circle class="outline" cx="0" cy="0" r="25" fill="#8DCC93" stroke="#5db665" stroke-width="2px"/><text text-anchor="middle" pointer-events="none" font-family="sans-serif" dy="1.5625" font-size="25" fill="#604A0E"/><text text-anchor="middle" pointer-events="none" y="5" font-size="10px" fill="#604A0E" font-family="sans-serif"> Tumbling</text></g><g class="node" transform="translate(-36.17111510129629,216.71706509940827)"><circle class="outline" cx="0" cy="0" r="25" fill="#8DCC93" stroke="#5db665" stroke-width="2px"/><text text-anchor="middle" pointer-events="none" font-family="sans-serif" dy="1.5625" font-size="25" fill="#604A0E"/><text text-anchor="middle" pointer-events="none" y="5" font-size="10px" fill="#604A0E" font-family="sans-serif"> Gairibus</text></g><g class="node" transform="translate(12.354827777869883,113.8272737654757)"><circle class="outline" cx="0" cy="0" r="25" fill="#8DCC93" stroke="#5db665" stroke-width="2px"/><text text-anchor="middle" pointer-events="none" font-family="sans-serif" dy="1.5625" font-size="25" fill="#604A0E"/><text text-anchor="middle" pointer-events="none" y="5" font-size="10px" fill="#604A0E" font-family="sans-serif"> BhikeBh…</text></g></g></svg>